# xmcd
#
# Track frame offsets:
#	150
#	16138
#	31687
#	45507
#	64208
#	90338
#
# Disc length: 4770 seconds
#
# Revision: 1
# Processed by: cddbd v1.5.2PL0 Copyright (c) Steve Scherf et al.
# Submitted via: audiograbber 1.82.01
#
DISCID=3812a006
DTITLE=Lea Finn - Lying
DYEAR=2003
DGENRE=Pop
TTITLE0=Lying single edit
TTITLE1=Lying radio mix
TTITLE2=Lying acoustic version
TTITLE3=Always be mine
TTITLE4=Anytime Again
TTITLE5=Daten-CD
EXTD=
EXTT0=
EXTT1=
EXTT2=
EXTT3=
EXTT4=
EXTT5=
PLAYORDER=
